<?xml version="1.0" encoding="UTF-8"?>
<svg version="1.1" xmlns="http://www.w3.org/2000/svg" width="225" height="225">
<path d="M0 0 C5.41610009 3.09491434 8.38766498 7.21021801 10.1875 13.12890625 C11.14236038 17.28833592 11.62641335 21.46861641 12.03515625 25.7109375 C12.15576416 26.95182129 12.15576416 26.95182129 12.27880859 28.21777344 C12.43317482 29.86837808 12.57599882 31.52011539 12.70556641 33.17285156 C13.30797574 39.88383003 14.31885755 46.27007465 19.23828125 51.2265625 C23.19328469 53.47466972 24.58076456 53.32489956 28.80664062 52.19140625 C29.53560547 51.96324219 30.26457031 51.73507813 31.015625 51.5 C32.47187364 51.08836705 33.928901 50.67947838 35.38671875 50.2734375 C36.02407959 50.07927246 36.66144043 49.88510742 37.31811523 49.68505859 C45.25957828 47.71706505 53.32911975 47.88531437 61.453125 47.875 C62.49075485 47.87249237 62.49075485 47.87249237 63.54934692 47.86993408 C74.90722112 47.86828761 85.68608099 48.58515617 96.6730957 51.72338867 C101.31879411 53.067885 101.31879411 53.067885 105.890625 51.6875 C113.37402812 44.55216214 112.86815112 33.47411631 113.95117188 23.79492188 C114.98826701 15.3723208 115.96930695 8.00302381 122.703125 2.1875 C126.65079419 -0.64452355 128.56518694 -1.05360018 133.390625 -1.125 C134.42832031 -1.15078125 135.46601563 -1.1765625 136.53515625 -1.203125 C141.26959869 -0.69260746 143.81810875 1.401175 147.203125 4.625 C152.95248484 11.98853343 153.40494084 22.17931191 152.578125 31.125 C150.82620592 42.61466931 145.55247313 53.60264927 136.2890625 60.9375 C131.53905895 64.38161134 126.99667591 66.92163347 121.578125 69.125 C122.403125 70.1459375 123.228125 71.166875 124.078125 72.21875 C170.16114546 129.96271362 170.16114546 129.96271362 168.578125 152.125 C167.515625 154.5 167.515625 154.5 165.578125 156.125 C163.25296917 156.51127184 160.91892945 156.8489745 158.578125 157.125 C158.9390625 158.17558594 159.3 159.22617188 159.671875 160.30859375 C164.53321793 174.84241638 164.53321793 174.84241638 163.578125 182.125 C158.48507769 192.12070032 148.61193876 197.94424427 138.578125 202.125 C137.52753906 202.42019531 136.47695312 202.71539062 135.39453125 203.01953125 C132.07712972 204.32164586 131.4179319 205.29069379 129.765625 208.375 C125.28689498 215.61076642 118.54243365 219.57703241 110.37890625 221.72265625 C98.06599961 223.49145595 86.32297527 220.51591355 76.29296875 213.4296875 C74.578125 212.125 74.578125 212.125 73.578125 211.125 C62.43097936 209.86875964 62.43097936 209.86875964 51.890625 212.546875 C49.99655442 214.34665198 49.99655442 214.34665198 48.31640625 216.30859375 C42.13983731 222.76276129 30.10295687 224.10039851 21.578125 224.5 C13.24153606 224.31649018 4.81321032 220.38044631 -1.046875 214.4921875 C-5.16866925 209.91461792 -5.16866925 209.91461792 -6.24609375 206.5546875 C-7.86535465 203.20857361 -9.52647687 202.89312732 -12.984375 201.6875 C-21.3416006 198.48856197 -31.67201328 193.13230356 -36.58984375 185.25390625 C-39.6089537 177.52895355 -36.84875367 169.2291839 -34.296875 161.77734375 C-33.31744528 159.27393856 -33.31744528 159.27393856 -33.421875 157.125 C-34.8140625 156.9703125 -34.8140625 156.9703125 -36.234375 156.8125 C-39.58909813 156.08893227 -40.40079939 155.75654713 -42.421875 153.125 C-45.40267256 140.03433073 -34.98174747 125.80042503 -28.421875 115.125 C-18.16762982 98.94097345 -6.94583635 83.42132193 4.578125 68.125 C3.85367188 68.01414062 3.12921875 67.90328125 2.3828125 67.7890625 C-7.53860348 65.43998072 -15.31016773 57.68038969 -20.671875 49.375 C-27.08663163 37.9519307 -28.58747656 24.20346477 -25.234375 11.5 C-23.50703102 6.66017772 -21.07165855 2.78614413 -16.62109375 -0.00390625 C-11.4866569 -2.03761747 -5.16077755 -1.86453899 0 0 Z " fill="#FCA201" transform="translate(49.421875,0.875)"/>
<path d="M0 0 C5.41610009 3.09491434 8.38766498 7.21021801 10.1875 13.12890625 C11.14236038 17.28833592 11.62641335 21.46861641 12.03515625 25.7109375 C12.15576416 26.95182129 12.15576416 26.95182129 12.27880859 28.21777344 C12.43317482 29.86837808 12.57599882 31.52011539 12.70556641 33.17285156 C13.30797574 39.88383003 14.31885755 46.27007465 19.23828125 51.2265625 C23.19328469 53.47466972 24.58076456 53.32489956 28.80664062 52.19140625 C29.53560547 51.96324219 30.26457031 51.73507813 31.015625 51.5 C32.47187364 51.08836705 33.928901 50.67947838 35.38671875 50.2734375 C36.02407959 50.07927246 36.66144043 49.88510742 37.31811523 49.68505859 C45.25957828 47.71706505 53.32911975 47.88531437 61.453125 47.875 C62.49075485 47.87249237 62.49075485 47.87249237 63.54934692 47.86993408 C74.90722112 47.86828761 85.68608099 48.58515617 96.6730957 51.72338867 C101.31879411 53.067885 101.31879411 53.067885 105.890625 51.6875 C113.37402812 44.55216214 112.86815112 33.47411631 113.95117188 23.79492188 C114.98826701 15.3723208 115.96930695 8.00302381 122.703125 2.1875 C126.65079419 -0.64452355 128.56518694 -1.05360018 133.390625 -1.125 C134.42832031 -1.15078125 135.46601563 -1.1765625 136.53515625 -1.203125 C141.26959869 -0.69260746 143.81810875 1.401175 147.203125 4.625 C152.95248484 11.98853343 153.40494084 22.17931191 152.578125 31.125 C150.82620592 42.61466931 145.55247313 53.60264927 136.2890625 60.9375 C131.53905895 64.38161134 126.99667591 66.92163347 121.578125 69.125 C122.403125 70.1459375 123.228125 71.166875 124.078125 72.21875 C170.16114546 129.96271362 170.16114546 129.96271362 168.578125 152.125 C167.515625 154.5 167.515625 154.5 165.578125 156.125 C163.25296917 156.51127184 160.91892945 156.8489745 158.578125 157.125 C158.9390625 158.17558594 159.3 159.22617188 159.671875 160.30859375 C164.53321793 174.84241638 164.53321793 174.84241638 163.578125 182.125 C158.48507769 192.12070032 148.61193876 197.94424427 138.578125 202.125 C137.52753906 202.42019531 136.47695312 202.71539062 135.39453125 203.01953125 C132.07712972 204.32164586 131.4179319 205.29069379 129.765625 208.375 C125.28689498 215.61076642 118.54243365 219.57703241 110.37890625 221.72265625 C98.06599961 223.49145595 86.32297527 220.51591355 76.29296875 213.4296875 C74.578125 212.125 74.578125 212.125 73.578125 211.125 C62.43097936 209.86875964 62.43097936 209.86875964 51.890625 212.546875 C49.99655442 214.34665198 49.99655442 214.34665198 48.31640625 216.30859375 C42.13983731 222.76276129 30.10295687 224.10039851 21.578125 224.5 C13.24153606 224.31649018 4.81321032 220.38044631 -1.046875 214.4921875 C-5.16866925 209.91461792 -5.16866925 209.91461792 -6.24609375 206.5546875 C-7.86535465 203.20857361 -9.52647687 202.89312732 -12.984375 201.6875 C-21.3416006 198.48856197 -31.67201328 193.13230356 -36.58984375 185.25390625 C-39.6089537 177.52895355 -36.84875367 169.2291839 -34.296875 161.77734375 C-33.31744528 159.27393856 -33.31744528 159.27393856 -33.421875 157.125 C-34.8140625 156.9703125 -34.8140625 156.9703125 -36.234375 156.8125 C-39.58909813 156.08893227 -40.40079939 155.75654713 -42.421875 153.125 C-45.40267256 140.03433073 -34.98174747 125.80042503 -28.421875 115.125 C-18.16762982 98.94097345 -6.94583635 83.42132193 4.578125 68.125 C3.85367188 68.01414062 3.12921875 67.90328125 2.3828125 67.7890625 C-7.53860348 65.43998072 -15.31016773 57.68038969 -20.671875 49.375 C-27.08663163 37.9519307 -28.58747656 24.20346477 -25.234375 11.5 C-23.50703102 6.66017772 -21.07165855 2.78614413 -16.62109375 -0.00390625 C-11.4866569 -2.03761747 -5.16077755 -1.86453899 0 0 Z M-17.421875 8.125 C-22.58563979 16.79274803 -22.59605056 27.08975708 -20.359375 36.75 C-16.96926235 47.70873623 -8.89787942 55.94258048 0.578125 62.0625 C4.54177354 63.46629219 8.39886984 63.85567022 12.578125 64.125 C10.43027113 69.8304675 7.56158735 74.07419721 3.765625 78.8125 C-6.80006551 92.32336735 -16.75067928 106.31639952 -25.421875 121.125 C-25.76444336 121.69943848 -26.10701172 122.27387695 -26.45996094 122.86572266 C-34.63838652 136.1275926 -34.63838652 136.1275926 -37.421875 151.125 C-33.461875 151.125 -29.501875 151.125 -25.421875 151.125 C-26.26682145 155.34973226 -27.37523899 158.76651306 -28.921875 162.75 C-31.09066587 168.79978506 -33.10864642 174.62792439 -32.421875 181.125 C-28.337221 188.44920717 -19.05682549 194.0346629 -11.421875 197.125 C-10.101875 197.125 -8.781875 197.125 -7.421875 197.125 C-7.32390625 196.4959375 -7.2259375 195.866875 -7.125 195.21875 C-5.55575969 186.23620201 -3.01478713 179.32641998 4.23046875 173.421875 C8.56708683 171.02627233 12.81545402 171.05213043 17.578125 172.125 C20.13272827 173.55675462 21.55985367 174.94308505 23.578125 177.125 C24.196875 176.815625 24.815625 176.50625 25.453125 176.1875 C29.82618429 174.00097036 32.92534015 173.9039346 37.828125 174.3125 C39.578125 175.125 39.578125 175.125 40.765625 177.5625 C41.03375 178.408125 41.301875 179.25375 41.578125 180.125 C41.908125 180.785 42.238125 181.445 42.578125 182.125 C44.55405548 182.58605044 46.53017046 183.04634735 48.5078125 183.5 C52.15186121 184.60009018 54.62931862 186.68202363 56.703125 189.8359375 C57.88501632 192.92784962 57.76909404 195.57654799 57.703125 198.875 C57.68507813 200.04546875 57.66703125 201.2159375 57.6484375 202.421875 C57.62523438 203.31390625 57.60203125 204.2059375 57.578125 205.125 C61.538125 205.125 65.498125 205.125 69.578125 205.125 C68.588125 202.65 68.588125 202.65 67.578125 200.125 C66.8866188 195.50155738 67.1329868 192.03239709 69.203125 187.8125 C72.61115545 183.95604449 75.55036871 181.36355956 80.765625 180.75 C81.69375 180.54375 82.621875 180.3375 83.578125 180.125 C85.31982798 177.2249475 85.31982798 177.2249475 86.578125 174.125 C90.10722853 171.77226432 91.42126868 171.71746507 95.578125 172.125 C98.953125 173.625 98.953125 173.625 101.578125 175.125 C102.361875 174.485625 103.145625 173.84625 103.953125 173.1875 C108.67969441 169.47376689 112.70209348 169.50837941 118.578125 170.125 C125.33830949 173.1150816 129.06281324 179.58927256 131.890625 186.1875 C132.74353618 189.83175687 133.19296826 193.40181823 133.578125 197.125 C142.55456945 196.12175033 150.06790909 190.13443007 156.578125 184.125 C159.33414148 179.99097528 158.4925703 176.77681873 157.578125 172.125 C156.53456039 168.22033476 155.29651671 164.39502944 154.015625 160.5625 C153.68626953 159.55380859 153.35691406 158.54511719 153.01757812 157.50585938 C152.21215918 155.04291158 151.39890461 152.58286243 150.578125 150.125 C151.32449219 150.28871094 152.07085937 150.45242187 152.83984375 150.62109375 C156.12194041 151.22507445 159.24822569 151.19029214 162.578125 151.125 C162.98007091 144.77848568 162.03995263 140.91456239 159.015625 135.375 C158.65065918 134.67963135 158.28569336 133.9842627 157.90966797 133.26782227 C156.81910654 131.20863583 155.70397856 129.1650651 154.578125 127.125 C153.71767578 125.55298828 153.71767578 125.55298828 152.83984375 123.94921875 C143.57477046 107.6081945 132.30813417 92.4006645 121.078125 77.375 C120.56137207 76.682854 120.04461914 75.99070801 119.51220703 75.27758789 C119.02864746 74.63426514 118.54508789 73.99094238 118.046875 73.328125 C117.40395508 72.47202637 117.40395508 72.47202637 116.74804688 71.59863281 C115.50676081 69.97754477 115.50676081 69.97754477 113.578125 68.125 C113.453125 65.5 113.453125 65.5 113.578125 63.125 C114.939375 63.310625 114.939375 63.310625 116.328125 63.5 C123.27879135 63.45770386 129.90234738 59.47985778 134.98828125 55.00390625 C142.95845053 46.40804144 146.96400974 36.94697197 146.828125 25.125 C146.83585938 24.45210937 146.84359375 23.77921875 146.8515625 23.0859375 C146.82796399 16.97392405 146.14890671 11.93139897 142.078125 7.25 C138.61746291 4.30843722 136.34812585 3.66064207 131.74609375 3.7109375 C127.77999285 4.46842704 125.05512687 7.03878956 122.578125 10.125 C120.8864982 13.7617607 120.22485048 16.96644559 119.8671875 20.94921875 C119.75632813 22.06103516 119.64546875 23.17285156 119.53125 24.31835938 C119.31438567 26.62770631 119.10334281 28.93760813 118.8984375 31.24804688 C118.03822767 39.72795627 116.64855451 47.44048459 111.078125 54.125 C107.37345611 57.08873511 105.59823809 58.1751695 100.765625 57.9375 C95.26788331 57.18326436 89.84614051 56.00278109 84.421875 54.84375 C66.78771682 51.54630579 46.45675123 51.30660016 29.49609375 57.51171875 C24.96358864 58.96101264 21.68909226 58.65826429 17.453125 56.625 C9.29199477 49.52836502 8.2344099 41.26102534 7.125 30.95703125 C6.3161886 17.69681265 6.3161886 17.69681265 0.015625 6.625 C-6.24904373 2.76981924 -12.26771358 2.52905332 -17.421875 8.125 Z " fill="#282622" transform="translate(49.421875,0.875)"/>
<path d="M0 0 C0.79921875 0.01804687 1.5984375 0.03609375 2.421875 0.0546875 C3.02515625 0.07789062 3.6284375 0.10109375 4.25 0.125 C4.25 1.445 4.25 2.765 4.25 4.125 C2.74924627 5.62575373 1.13340128 5.56633344 -0.9375 5.9375 C-5.37809018 6.86676088 -8.17413377 8.37433367 -11.75 11.125 C-10.88117188 11.35574219 -10.01234375 11.58648437 -9.1171875 11.82421875 C4.67820256 15.72828327 4.67820256 15.72828327 8.67578125 22.5625 C13.05328433 31.04622428 14.76886957 38.56348345 12.56640625 48.078125 C8.92538008 58.89544755 3.46212474 65.04530284 -6.75 70.125 C-12.89765583 72.17421861 -19.04272559 71.63011638 -24.97265625 69.09375 C-31.48368785 65.54488003 -35.45316169 58.45972709 -38.0625 51.75 C-40.02504824 41.40201837 -38.014132 34.07038329 -33 24.9375 C-28.56808125 19.39760157 -23.85391556 14.723381 -16.75 13.125 C-16.82734375 12.36574219 -16.9046875 11.60648438 -16.984375 10.82421875 C-16.75 8.125 -16.75 8.125 -15.140625 6.39453125 C-14.43421875 5.91371094 -13.7278125 5.43289062 -13 4.9375 C-12.30390625 4.44894531 -11.6078125 3.96039063 -10.890625 3.45703125 C-7.05552274 1.07058988 -4.58623657 -0.13488931 0 0 Z " fill="#292825" transform="translate(82.75,65.875)"/>
<path d="M0 0 C5.83428056 0.53038914 10.20172935 2.00939935 15.21484375 5.01953125 C16.45234375 5.76203125 16.45234375 5.76203125 17.71484375 6.51953125 C18.20984375 7.01453125 18.70484375 7.50953125 19.21484375 8.01953125 C19.21484375 9.33953125 19.21484375 10.65953125 19.21484375 12.01953125 C19.83230469 12.21546875 20.44976562 12.41140625 21.0859375 12.61328125 C30.16206525 15.81824569 36.78684599 20.64097547 41.21484375 29.33203125 C44.98966229 37.68119586 45.86397186 46.6522582 43.15625 55.46484375 C40.10216344 62.06961631 36.5733103 66.45453327 30.21484375 70.01953125 C29.00828125 70.70015625 29.00828125 70.70015625 27.77734375 71.39453125 C19.75541016 73.35110042 14.17836805 71.71451334 6.953125 67.78515625 C-0.32851128 63.09000704 -3.83989579 56.27030152 -6.37109375 48.13671875 C-8.27070826 38.42359549 -6.92766744 30.18427423 -1.46484375 22.0546875 C2.73170972 16.63127276 7.81545664 14.15266029 14.21484375 12.01953125 C9.00714202 7.809049 4.82413758 6.02366433 -1.78515625 5.01953125 C-2.34765625 3.08203125 -2.34765625 3.08203125 -2.78515625 1.01953125 C-1.78515625 0.01953125 -1.78515625 0.01953125 0 0 Z " fill="#292826" transform="translate(134.78515625,63.98046875)"/>
<path d="M0 0 C3.32783116 1.9532922 4.71192872 3.02498951 5.8125 6.75 C5.874375 7.4925 5.93625 8.235 6 9 C9.00795167 9.34509128 9.00795167 9.34509128 10.60546875 7.46875 C11.12753906 6.8190625 11.64960937 6.169375 12.1875 5.5 C12.71730469 4.8503125 13.24710938 4.200625 13.79296875 3.53125 C14.19128906 3.0259375 14.58960938 2.520625 15 2 C17.3125 2.1875 17.3125 2.1875 20 3 C22.4640248 6.16803189 23.43623218 9.05362526 24 13 C24.5775 12.855625 25.155 12.71125 25.75 12.5625 C26.86375 12.2840625 26.86375 12.2840625 28 12 C28.639375 11.731875 29.27875 11.46375 29.9375 11.1875 C32 11 32 11 34.625 12.75 C37 15 37 15 39 18 C38.75545532 25.45861259 36.35884216 29.89686131 31 35.125 C22.90411044 41.62909732 12.78518691 42.91653135 2.71484375 42.44921875 C-5.45177069 41.46166811 -10.73018657 37.04100564 -16 31 C-19.24090566 25.85925309 -18.66388458 19.83807779 -18 14 C-15.18013246 5.70983148 -9.45068087 -1.54647505 0 0 Z " fill="#FDA301" transform="translate(65,177)"/>
<path d="M0 0 C6.22852931 3.83294111 8.73717388 9.21152164 11 16 C11.78533743 22.52731277 10.80342291 27.59700671 7 33 C0.81292602 39.33095942 -5.95058155 42.2166531 -14.8125 42.5 C-25.3835004 42.13548274 -33.58679053 39.48167231 -41.21875 32.015625 C-44.2931334 28.53671747 -45.69580175 25.58859088 -46.5625 21.0625 C-45.74449681 16.60892708 -43.12742017 14.14603577 -40 11 C-36.97514219 11.5881668 -33.98613386 12.24070528 -31 13 C-30.87882813 12.37351563 -30.75765625 11.74703125 -30.6328125 11.1015625 C-30.46523437 10.28429687 -30.29765625 9.46703125 -30.125 8.625 C-29.96257812 7.81289062 -29.80015625 7.00078125 -29.6328125 6.1640625 C-29 4 -29 4 -27 2 C-24.75 1.4375 -24.75 1.4375 -22 2 C-19.73444336 4.13761933 -17.8541071 6.5023712 -16 9 C-15.01 8.67 -14.02 8.34 -13 8 C-12.32060826 6.00428677 -11.65438441 4.00405227 -11 2 C-7.29137778 -0.47241481 -4.29972274 -0.77509233 0 0 Z " fill="#FCA201" transform="translate(167,175)"/>
<path d="M0 0 C3.51742111 2.65951352 3.51742111 2.65951352 3.9375 5.25 C3.5625 7.9375 3.5625 7.9375 1.375 10.1875 C-1.36563365 11.89278316 -3.26176667 12.57455905 -6.4375 12.9375 C-6.52 13.700625 -6.6025 14.46375 -6.6875 15.25 C-7.58365794 18.46123261 -8.65361025 19.23124499 -11.4375 20.9375 C-11.08529338 23.64544928 -10.77334499 24.67518739 -8.58203125 26.38671875 C-4.19870515 28.71421351 -0.48026475 30.54959502 4.5625 30.9375 C4.871875 29.98875 5.18125 29.04 5.5 28.0625 C6.5625 24.9375 6.5625 24.9375 7.5625 22.9375 C5.0875 21.9475 5.0875 21.9475 2.5625 20.9375 C2.8925 19.2875 3.2225 17.6375 3.5625 15.9375 C4.201875 16.205625 4.84125 16.47375 5.5 16.75 C9.47452261 18.29114142 13.51134495 19.61359312 17.5625 20.9375 C17.2325 22.2575 16.9025 23.5775 16.5625 24.9375 C14.9125 24.9375 13.2625 24.9375 11.5625 24.9375 C11.4696875 26.2678125 11.4696875 26.2678125 11.375 27.625 C10.34323813 31.83141378 9.03241083 33.3727833 5.5625 35.9375 C1.75 36.25 1.75 36.25 -1.4375 35.9375 C-1.64375 36.9275 -1.85 37.9175 -2.0625 38.9375 C-3.54549284 44.13856774 -6.7472159 49.33167151 -11.453125 52.140625 C-14.3709574 53.31235297 -16.31421074 53.3747605 -19.4375 52.9375 C-25.52890818 49.03899877 -28.4479884 43.89554642 -30.1875 36.9375 C-30.27 36.2775 -30.3525 35.6175 -30.4375 34.9375 C-31.489375 35.06125 -32.54125 35.185 -33.625 35.3125 C-38.00641663 34.88154099 -38.00641663 34.88154099 -40.375 32.125 C-42.4375 28.9375 -42.4375 28.9375 -42.4375 25.9375 C-44.7475 25.9375 -47.0575 25.9375 -49.4375 25.9375 C-49.4375 24.6175 -49.4375 23.2975 -49.4375 21.9375 C-41.175541 17.52975513 -41.175541 17.52975513 -36.4375 16.9375 C-36.4375 20.9375 -36.4375 20.9375 -37.125 22.875 C-37.5888912 25.93668192 -36.1462205 27.47694248 -34.4375 29.9375 C-30.51452154 29.37409352 -27.94669644 28.23659621 -24.6875 26 C-23.90890625 25.47535156 -23.1303125 24.95070312 -22.328125 24.41015625 C-20.32211347 23.06573573 -20.32211347 23.06573573 -19.4375 20.9375 C-20.200625 20.855 -20.96375 20.7725 -21.75 20.6875 C-24.4375 19.9375 -24.4375 19.9375 -26.25 18.0625 C-27.4375 15.9375 -27.4375 15.9375 -27.4375 12.9375 C-28.159375 12.855 -28.88125 12.7725 -29.625 12.6875 C-33.10534771 11.75940728 -34.9309447 10.51567117 -37.4375 7.9375 C-38.0625 5.4375 -38.0625 5.4375 -37.4375 2.9375 C-28.69993436 -6.64563651 -10.4076409 -6.7661968 0 0 Z " fill="#282623" transform="translate(129.4375,122.0625)"/>
<path d="M0 0 C0.495 0.495 0.99 0.99 1.5 1.5 C0.38625 2.056875 0.38625 2.056875 -0.75 2.625 C-4.84141284 5.41459966 -6.94622494 8.83867481 -8.5 13.5 C-9.14304059 21.958457 -8.68757439 27.89572588 -3.8125 34.9375 C-0.3342623 37.28766061 2.35941278 36.77603915 6.5 36.5 C3.34903826 42.65869794 -1.01493543 45.25883798 -7.5 47.5 C-12.82447568 48.49401738 -17.37395547 47.88844687 -21.93359375 44.89453125 C-27.83629137 39.63951117 -30.12147557 32.34833171 -30.875 24.6875 C-30.58043707 15.72932148 -25.87647776 8.47435754 -19.5 2.5 C-13.98134781 -1.47856321 -6.18570427 -3.71142256 0 0 Z " fill="#F9F9F9" transform="translate(79.5,84.5)"/>
<path d="M0 0 C6.3833054 2.51199923 10.5779648 7.16903213 14 13 C16.85951234 19.75884734 17.30563564 27.79165655 15.125 34.8203125 C12.62115431 40.33865663 9.67195433 44.55617198 4 47 C-1.42416164 48.55394901 -5.96786048 48.26221943 -11.13671875 46.03515625 C-14.12772909 44.37348384 -16.49095848 42.3208634 -19 40 C-18.67 39.34 -18.34 38.68 -18 38 C-17.113125 38.103125 -16.22625 38.20625 -15.3125 38.3125 C-11.85091442 38.29020476 -11.85091442 38.29020476 -9.25 35.8125 C-3.97916422 29.22395527 -4.23849345 22.13802785 -5 14 C-6.35162215 9.53232285 -8.03710419 6.64193054 -12 4 C-13.65549531 3.61500109 -15.3222433 3.27206865 -17 3 C-11.12747394 -1.50226998 -7.2536137 -1.40360861 0 0 Z " fill="#FAFAFA" transform="translate(158,83)"/>
<path d="M0 0 C0.76828125 -0.00386719 1.5365625 -0.00773437 2.328125 -0.01171875 C6.98796251 -0.00379386 11.40372732 0.35487984 16 1.125 C16.14695313 1.94742188 16.29390625 2.76984375 16.4453125 3.6171875 C17.86844357 10.70012721 19.75235261 16.19236604 23.79296875 22.19921875 C25 24.125 25 24.125 25 26.125 C23.68 26.455 22.36 26.785 21 27.125 C20.814375 26.2175 20.62875 25.31 20.4375 24.375 C18.59368816 20.20638194 16.07107435 18.77590276 12 17.125 C2.08033231 14.35672064 -8.54360932 15.57398512 -17.5 20.5 C-19.43999396 22.60166012 -19.69701433 24.32238258 -20 27.125 C-21.32 26.465 -22.64 25.805 -24 25.125 C-23.71125 24.56039062 -23.4225 23.99578125 -23.125 23.4140625 C-19.57384604 16.18845063 -17.28501322 9.07179226 -16 1.125 C-10.62238358 0.22396321 -5.44753681 -0.02742049 0 0 Z " fill="#A383D5" transform="translate(112,102.875)"/>
<path d="M0 0 C4.42077368 2.25209225 7.05435326 4.42773015 9 9 C10.34712917 14.13055577 10.95404353 19.35501377 11.4609375 24.625 C11.54077881 25.44790527 11.62062012 26.27081055 11.70288086 27.11865234 C11.85542138 28.74818509 11.99744499 30.37874849 12.12719727 32.01025391 C12.64199606 37.67836002 13.99111569 42.67942829 16 48 C12.71855319 47.71873313 11.0495316 47.03655904 8.375 45.0625 C3.78881912 39.14874044 2.9539308 32.84035051 2.625 25.5 C2.21691176 18.72253448 0.61113825 12.32152315 -4.55859375 7.56640625 C-6.29175142 6.34193849 -6.29175142 6.34193849 -9 5 C-9.99 4.34 -10.98 3.68 -12 3 C-8.48542476 -0.51457524 -4.72638154 -0.81960373 0 0 Z " fill="#F9BD5C" transform="translate(45,5)"/>
<path d="M0 0 C1.29322463 3.8796739 0.41733425 5.02662453 -1.16796875 8.7421875 C-1.64943359 9.89203125 -2.13089844 11.041875 -2.62695312 12.2265625 C-3.14193359 13.43054688 -3.65691406 14.63453125 -4.1875 15.875 C-8.63289782 26.32659851 -12.92546586 36.78233925 -15 48 C-14.34 48.33 -13.68 48.66 -13 49 C-18.94 49.495 -18.94 49.495 -25 50 C-25 32.77382024 -9.83069081 13.43422378 0 0 Z " fill="#D3880F" transform="translate(37,102)"/>
<path d="M0 0 C0.33 0 0.66 0 1 0 C1.18175781 1.18078125 1.36351562 2.3615625 1.55078125 3.578125 C1.80409146 5.13551373 2.05803077 6.69280023 2.3125 8.25 C2.43044922 9.02730469 2.54839844 9.80460938 2.66992188 10.60546875 C3.6234718 16.34647017 3.6234718 16.34647017 7 21 C12.10239468 23.36452436 17.46207513 23.55097906 23 24 C22.34 27.96 21.68 31.92 21 36 C11.31068914 34.38511486 3.85442866 28.94391206 -3 22 C-5.2493944 17.50121119 -3.53012937 10.95783229 -2.26171875 6.2734375 C-1.55408255 4.16059007 -0.81419378 2.07388983 0 0 Z " fill="#D3880F" transform="translate(21,162)"/>
<path d="M0 0 C-2.36214776 2.36214776 -2.79400362 2.25573437 -5.99609375 2.265625 C-7.27444092 2.27154663 -7.27444092 2.27154663 -8.57861328 2.27758789 C-9.5220459 2.26848389 -10.46547852 2.25937988 -11.4375 2.25 C-12.42218262 2.24540771 -13.40686523 2.24081543 -14.42138672 2.23608398 C-24.16882523 2.12459609 -33.89445955 1.61392787 -43.625 1.0625 C-44.40019989 1.01911499 -45.17539978 0.97572998 -45.97409058 0.93103027 C-48.20441074 0.80405419 -50.4342667 0.67100479 -52.6640625 0.53515625 C-53.95779785 0.456604 -55.2515332 0.37805176 -56.58447266 0.29711914 C-59.47019118 0.04608844 -62.18051429 -0.35565209 -65 -1 C-49.74442018 -9.89908823 -15.36939352 -7.25864581 0 0 Z " fill="#F9BC5A" transform="translate(147,59)"/>
<path d="M0 0 C4.04420651 1.77945087 7.46078487 4.39529673 11 7 C10.51726991 12.14912095 7.66411915 17.33588085 4 21 C1.6875 21.375 1.6875 21.375 -1 21 C-4.68350121 17.31649879 -7.86571116 12.75292114 -8.125 7.4375 C-6.41865111 3.74041074 -3.40082136 2.08666585 0 0 Z " fill="#E06265" transform="translate(112,149)"/>
<path d="M0 0 C0.33 0 0.66 0 1 0 C0.979375 1.175625 0.95875 2.35125 0.9375 3.5625 C2.17263014 14.74925013 12.63636197 28.74999862 21.03125 35.67578125 C23.12308413 37.16268535 23.12308413 37.16268535 26.1875 38.4375 C29 40 29 40 29.875 42.1875 C29.91625 42.785625 29.9575 43.38375 30 44 C22.33123796 43.6736697 17.13950928 40.10674918 11.75390625 34.77734375 C2.14147517 24.2124883 -0.66950146 14.20830867 0 0 Z " fill="#D1870F" transform="translate(28,20)"/>
<path d="M0 0 C1.2065625 0.0309375 1.2065625 0.0309375 2.4375 0.0625 C3.97824107 2.80179378 5.49142858 5.55537839 7 8.3125 C7.43763672 9.08980469 7.87527344 9.86710938 8.32617188 10.66796875 C8.94008789 11.79912109 8.94008789 11.79912109 9.56640625 12.953125 C10.13983765 13.99001465 10.13983765 13.99001465 10.72485352 15.04785156 C11.58685462 17.48472486 11.3369565 18.672137 10.4375 21.0625 C9.4375 22.0625 9.4375 22.0625 6.875 22.125 C6.070625 22.104375 5.26625 22.08375 4.4375 22.0625 C2.8984776 19.50946285 1.38154807 16.94710065 -0.125 14.375 C-0.56263672 13.65376953 -1.00027344 12.93253906 -1.45117188 12.18945312 C-4.60023312 6.75918217 -4.60023312 6.75918217 -4.40234375 3.10546875 C-3.15737469 0.07700914 -3.15737469 0.07700914 0 0 Z " fill="#F4E571" transform="translate(184.5625,150.9375)"/>
<path d="M0 0 C1.2065625 0.0309375 1.2065625 0.0309375 2.4375 0.0625 C3.78671052 2.42964167 5.11664309 4.80460275 6.4375 7.1875 C6.8190625 7.85265625 7.200625 8.5178125 7.59375 9.203125 C9.84611835 13.30565307 11.02242327 16.25150608 10.4375 21.0625 C9.4375 22.0625 9.4375 22.0625 6.875 22.125 C6.070625 22.104375 5.26625 22.08375 4.4375 22.0625 C2.8984776 19.50946285 1.38154807 16.94710065 -0.125 14.375 C-0.56263672 13.65376953 -1.00027344 12.93253906 -1.45117188 12.18945312 C-4.60023312 6.75918217 -4.60023312 6.75918217 -4.40234375 3.10546875 C-3.15737469 0.07700914 -3.15737469 0.07700914 0 0 Z " fill="#F4E671" transform="translate(172.5625,153.9375)"/>
<path d="M0 0 C3.81868119 0.17357642 5.70065171 0.76868541 8.75 3.125 C13.00746534 8.5650946 13.32487367 14.54246143 13.25 21.1875 C13.25773438 21.88552734 13.26546875 22.58355469 13.2734375 23.30273438 C13.25926134 27.02752063 13.05853506 29.8386783 11 33 C8.15900351 27.28158399 7.98593557 20.83168258 7.3203125 14.57226562 C6.7008057 9.14687889 6.7008057 9.14687889 4.0859375 4.47265625 C2.40894824 3.28871439 0.7080376 2.13869173 -1 1 C-0.67 0.67 -0.34 0.34 0 0 Z " fill="#FABD5A" transform="translate(183,5)"/>
<path d="M0 0 C1.67542976 0.28604898 3.34385343 0.61781233 5 1 C5.71484375 2.578125 5.71484375 2.578125 6 5 C4.94290501 7.38494456 3.8682111 9.51234067 2.5625 11.75 C2.22412109 12.35199219 1.88574219 12.95398438 1.53710938 13.57421875 C0.70231735 15.05568065 -0.14741494 16.52870608 -1 18 C-5.875 17.125 -5.875 17.125 -7 16 C-6.74721363 9.80673382 -4.44837337 4.44837337 0 0 Z " fill="#F4E671" transform="translate(48,157)"/>
<path d="M0 0 C0.26425781 0.54011719 0.52851562 1.08023438 0.80078125 1.63671875 C6.65015404 13.16398435 11.95243791 21.71598154 24 27 C24 27.33 24 27.66 24 28 C17.4539974 28.69638326 13.34752241 26.72382015 8 23 C4.57679084 20.15218132 1.5974319 17.21810358 0 13 C-0.1953125 9.765625 -0.1953125 9.765625 -0.125 6.25 C-0.09792969 4.49429688 -0.09792969 4.49429688 -0.0703125 2.703125 C-0.04710937 1.81109375 -0.02390625 0.9190625 0 0 Z " fill="#D2870F" transform="translate(47,191)"/>
<path d="M0 0 C4.875 0.875 4.875 0.875 6 2 C5.73738839 8.30267874 3.26347733 12.68932286 0 18 C-1.98 17.67 -3.96 17.34 -6 17 C-6.34884724 12.10160332 -5.46792622 9.34104063 -3 5.125 C-2.443125 4.15820312 -1.88625 3.19140625 -1.3125 2.1953125 C-0.879375 1.47085938 -0.44625 0.74640625 0 0 Z " fill="#F4E673" transform="translate(36,155)"/>
<path d="M0 0 C0.79921875 0.01804687 1.5984375 0.03609375 2.421875 0.0546875 C3.02515625 0.07789062 3.6284375 0.10109375 4.25 0.125 C4.25 1.445 4.25 2.765 4.25 4.125 C2.74924627 5.62575373 1.13340128 5.56633344 -0.9375 5.9375 C-5.38586587 6.8826001 -8.2376816 8.24309773 -11.75 11.125 C-11.75 11.785 -11.75 12.445 -11.75 13.125 C-13.4 13.125 -15.05 13.125 -16.75 13.125 C-16.984375 10.82421875 -16.984375 10.82421875 -16.75 8.125 C-15.140625 6.39453125 -15.140625 6.39453125 -13 4.9375 C-11.95585938 4.20466797 -11.95585938 4.20466797 -10.890625 3.45703125 C-7.05552274 1.07058988 -4.58623657 -0.13488931 0 0 Z " fill="#342D20" transform="translate(82.75,65.875)"/>
<path d="M0 0 C7.50302752 0.68209341 13.40248394 3.17589807 19.21484375 8.01953125 C18.88484375 9.66953125 18.55484375 11.31953125 18.21484375 13.01953125 C15.2569385 11.97556469 13.0180363 10.87639856 10.46484375 9.01953125 C6.48014006 6.56740591 2.78072089 5.79065717 -1.78515625 5.01953125 C-2.34765625 3.08203125 -2.34765625 3.08203125 -2.78515625 1.01953125 C-1.78515625 0.01953125 -1.78515625 0.01953125 0 0 Z " fill="#322B20" transform="translate(134.78515625,63.98046875)"/>
<path d="M0 0 C2.29614156 2.11900829 3.77882973 4.14353164 5.2265625 6.90625 C5.6184375 7.65003906 6.0103125 8.39382812 6.4140625 9.16015625 C7.01347656 10.31837891 7.01347656 10.31837891 7.625 11.5 C8.03234375 12.27214844 8.4396875 13.04429687 8.859375 13.83984375 C12.05653244 19.94832004 13.11316511 24.09692807 13 31 C12.34 31 11.68 31 11 31 C0 6.46735395 0 6.46735395 0 0 Z " fill="#F7BB5A" transform="translate(199,121)"/>
<path d="M0 0 C0.33 0 0.66 0 1 0 C1.23460938 0.8971875 1.46921875 1.794375 1.7109375 2.71875 C3.1630571 6.41505443 4.62960536 7.94046774 7.625 10.5 C8.511875 11.26183594 9.39875 12.02367187 10.3125 12.80859375 C13.79771834 15.6504651 17.33717059 18.3910014 21 21 C17.55118337 22.14451879 16.9491178 21.98134319 13.25 20.625 C8.10481965 17.81590528 4.14392546 13.93933427 1 9 C0.10897936 5.81159102 0 3.34983529 0 0 Z " fill="#D2870F" transform="translate(121,193)"/>
<path d="M0 0 C5.28 0 10.56 0 16 0 C10.30769231 4.55384615 10.30769231 4.55384615 6.875 6.25 C5.88113281 6.75273437 5.88113281 6.75273437 4.8671875 7.265625 C3 8 3 8 0 8 C0 5.36 0 2.72 0 0 Z " fill="#D68A0E" transform="translate(183,190)"/>
<path d="M0 0 C2.0625 0.4375 2.0625 0.4375 4 1 C6.11161731 10.41002278 6.11161731 10.41002278 7 15 C5.68 15.33 4.36 15.66 3 16 C-0.49272321 11.44427407 -0.95853935 6.59718753 -1 1 C-0.67 0.67 -0.34 0.34 0 0 Z " fill="#342D20" transform="translate(118,77)"/>
<path d="M0 0 C3.63947809 1.63776514 5.29196258 3.84448726 7.5 7.125 C7.5 8.775 7.5 10.425 7.5 12.125 C2.55 9.485 -2.4 6.845 -7.5 4.125 C-2.5 0.125 -2.5 0.125 0 0 Z " fill="#F1B657" transform="translate(96.5,187.875)"/>
<path d="M0 0 C2.475 0.495 2.475 0.495 5 1 C5 5.95 5 10.9 5 16 C3.35 16 1.7 16 0 16 C0 10.72 0 5.44 0 0 Z " fill="#302A21" transform="translate(110,77)"/>
<path d="M0 0 C2.0625 0.4375 2.0625 0.4375 4 1 C4.34469404 6.63000273 3.7166373 10.14886197 1 15 C-1.1875 15.9375 -1.1875 15.9375 -3 16 C-2.67241229 13.33250007 -2.33906139 10.66604434 -2 8 C-1.835 6.700625 -1.67 5.40125 -1.5 4.0625 C-1 1 -1 1 0 0 Z " fill="#302A20" transform="translate(103,77)"/>
<path d="M0 0 C4.84207034 -0.41741986 7.04831016 -0.58565529 11.25 2 C14.42094177 5.03194159 16.66316713 8.82354974 18 13 C17.67 13.66 17.34 14.32 17 15 C16.360625 14.319375 15.72125 13.63875 15.0625 12.9375 C11.98861792 9.84600255 8.56136457 7.26983471 5.0859375 4.6484375 C3.24618189 3.19454824 1.61411069 1.69635836 0 0 Z " fill="#F6BA57" transform="translate(159,175)"/>
<path d="M0 0 C1.98 0 3.96 0 6 0 C6.36351563 0.87011719 6.36351563 0.87011719 6.734375 1.7578125 C9.325568 7.79728542 12.0284883 13.52563947 17 18 C14.75 18.3125 14.75 18.3125 12 18 C7.98493332 14.36134582 6.27422528 9.3398442 4.24609375 4.42578125 C3.10360393 1.71759658 3.10360393 1.71759658 0 0 Z " fill="#C78110" transform="translate(93,157)"/>
<path d="M0 0 C1.5 1.0625 1.5 1.0625 3 3 C3.1875 6.6875 3.1875 6.6875 3 10 C-3.15234375 9.4140625 -3.15234375 9.4140625 -5 9 C-5.33 8.34 -5.66 7.68 -6 7 C-5.195625 6.21625 -4.39125 5.4325 -3.5625 4.625 C-1.01309583 2.28017144 -1.01309583 2.28017144 0 0 Z " fill="#D2880F" transform="translate(164,50)"/>
<path d="M0 0 C3 3 3 3 4 6 C0.04 6 -3.92 6 -8 6 C-8 5.01 -8 4.02 -8 3 C-5.36 2.01 -2.72 1.02 0 0 Z " fill="#CD850F" transform="translate(115,200)"/>
<path d="M0 0 C2.3125 0.1875 2.3125 0.1875 5 1 C6.875 3.3125 6.875 3.3125 8 6 C7.6875 8.3125 7.6875 8.3125 7 10 C6.5875 9.05125 6.175 8.1025 5.75 7.125 C3.9959869 3.99283376 3.29148243 3.13499394 0 2 C0 1.34 0 0.68 0 0 Z " fill="#DEA851" transform="translate(80,179)"/>
<path d="M0 0 C1.9375 0.75 1.9375 0.75 4.9375 2.75 C1.3075 2.42 -2.3225 2.09 -6.0625 1.75 C-2.0625 -0.25 -2.0625 -0.25 0 0 Z " fill="#E2A94A" transform="translate(88.0625,56.25)"/>
</svg>
